<svg width="124" height="195" viewBox="0 0 124 195" fill="none" xmlns="http://www.w3.org/2000/svg">
<g filter="url(#filter0_d)">
<circle cx="61" cy="34" r="30" fill="#00A651" stroke="black" stroke-width="8"/>
<path fill-rule="evenodd" clip-rule="evenodd" d="M81.3531 163.708C81.5364 163.372 81.6923 163.085 81.8297 162.864C81.9892 162.608 82.1817 162.301 82.4045 161.945C88.8305 151.683 120.398 101.269 109.868 81.3362C104.596 71.3575 87.6912 73.7942 73.5816 75.8279C69.3372 76.4397 65.3457 77.015 62 77.2049C58.6543 77.015 54.6628 76.4397 50.4184 75.8279C36.3088 73.7942 19.4037 71.3575 14.132 81.3362C3.60161 101.269 35.1695 151.683 41.5955 161.945C41.8183 162.301 42.0108 162.608 42.1703 162.864C42.2896 163.056 42.4262 163.297 42.5852 163.577C44.3064 166.614 48.652 174.28 62.0077 174.013C75.6033 174.276 79.6557 166.828 81.3531 163.708Z" fill="#00A651"/>
<path d="M81.8297 162.864L85.2255 164.978L85.2256 164.978L81.8297 162.864ZM81.3531 163.708L77.8396 161.797L77.8396 161.797L81.3531 163.708ZM82.4045 161.945L79.0143 159.822L79.0143 159.822L82.4045 161.945ZM109.868 81.3362L113.405 79.4677V79.4677L109.868 81.3362ZM73.5816 75.8279L73.011 71.8688L73.5816 75.8279ZM62 77.2049L61.7733 81.1985L62 81.2113L62.2267 81.1985L62 77.2049ZM50.4184 75.8279L49.8477 79.787L50.4184 75.8279ZM14.132 81.3362L10.5952 79.4677L10.5952 79.4677L14.132 81.3362ZM41.5955 161.945L38.2053 164.068L38.2054 164.068L41.5955 161.945ZM42.1703 162.864L38.7744 164.978L38.7744 164.978L42.1703 162.864ZM42.5852 163.577L46.0649 161.605L46.0649 161.605L42.5852 163.577ZM62.0077 174.013L62.0853 170.013L62.0064 170.012L61.9276 170.013L62.0077 174.013ZM78.4338 160.751C78.2206 161.093 78.0021 161.498 77.8396 161.797L84.8667 165.62C85.0707 165.245 85.1639 165.077 85.2255 164.978L78.4338 160.751ZM79.0143 159.822C78.7925 160.176 78.5968 160.489 78.4338 160.751L85.2256 164.978C85.3816 164.727 85.571 164.425 85.7947 164.068L79.0143 159.822ZM106.331 83.2047C108.3 86.9311 108.53 92.6669 107.005 100.093C105.51 107.373 102.481 115.561 98.848 123.624C91.5914 139.73 82.2235 154.697 79.0143 159.822L85.7947 164.068C89.0114 158.931 98.6405 143.56 106.142 126.91C109.888 118.595 113.178 109.801 114.841 101.702C116.475 93.7482 116.701 85.7076 113.405 79.4677L106.331 83.2047ZM74.1523 79.787C81.3142 78.7547 88.6412 77.7146 94.8084 78.0707C101.089 78.4334 104.719 80.1522 106.331 83.2047L113.405 79.4677C109.746 72.5415 102.286 70.4892 95.2696 70.084C88.1389 69.6723 79.9586 70.8674 73.011 71.8688L74.1523 79.787ZM62.2267 81.1985C65.7817 80.9967 69.9622 80.3909 74.1523 79.787L73.011 71.8688C68.7121 72.4884 64.9097 73.0333 61.7733 73.2113L62.2267 81.1985ZM62.2267 73.2113C59.0903 73.0333 55.2879 72.4884 50.989 71.8688L49.8477 79.787C54.0378 80.3909 58.2183 80.9967 61.7733 81.1985L62.2267 73.2113ZM50.989 71.8688C44.0414 70.8674 35.8611 69.6723 28.7304 70.084C21.7135 70.4892 14.2543 72.5415 10.5952 79.4677L17.6687 83.2047C19.2814 80.1522 22.9105 78.4334 29.1916 78.0707C35.3588 77.7146 42.6858 78.7547 49.8477 79.787L50.989 71.8688ZM10.5952 79.4677C7.29866 85.7076 7.52548 93.7482 9.15876 101.702C10.8219 109.801 14.1119 118.595 17.8582 126.91C25.3595 143.56 34.9886 158.931 38.2053 164.068L44.9857 159.822C41.7765 154.697 32.4086 139.73 25.1521 123.624C21.5193 115.561 18.4902 107.373 16.9952 100.093C15.4704 92.6669 15.7001 86.9311 17.6687 83.2047L10.5952 79.4677ZM38.2054 164.068C38.429 164.425 38.6184 164.727 38.7744 164.978L45.5662 160.751C45.4032 160.489 45.2075 160.176 44.9857 159.822L38.2054 164.068ZM38.7744 164.978C38.8407 165.085 38.9321 165.244 39.1054 165.55L46.0649 161.605C45.9203 161.35 45.7385 161.027 45.5662 160.751L38.7744 164.978ZM39.1054 165.55C40.0013 167.131 41.8486 170.428 45.51 173.216C49.2446 176.06 54.5656 178.162 62.0878 178.012L61.9276 170.013C56.0941 170.13 52.5644 168.533 50.357 166.852C48.0764 165.115 46.8903 163.061 46.0649 161.605L39.1054 165.55ZM77.8396 161.797C77.0248 163.294 75.9231 165.275 73.7245 166.943C71.594 168.559 68.0859 170.13 62.0853 170.013L61.9302 178.012C69.5251 178.159 74.841 176.137 78.5599 173.316C82.2108 170.546 83.984 167.243 84.8667 165.62L77.8396 161.797Z" fill="black"/>
</g>
<defs>
<filter id="filter0_d" x="-3.05176e-05" y="0" width="124" height="194.019" filterUnits="userSpaceOnUse" color-interpolation-filters="sRGB">
<feFlood flood-opacity="0" result="BackgroundImageFix"/>
<feColorMatrix in="SourceAlpha" type="matrix" values="0 0 0 0 0 0 0 0 0 0 0 0 0 0 0 0 0 0 127 0" result="hardAlpha"/>
<feOffset dy="8"/>
<feGaussianBlur stdDeviation="4"/>
<feComposite in2="hardAlpha" operator="out"/>
<feColorMatrix type="matrix" values="0 0 0 0 1 0 0 0 0 1 0 0 0 0 1 0 0 0 0.56 0"/>
<feBlend mode="normal" in2="BackgroundImageFix" result="effect1_dropShadow"/>
<feBlend mode="normal" in="SourceGraphic" in2="effect1_dropShadow" result="shape"/>
</filter>
</defs>
</svg>
